Coordinates
version=1
nRows=7
nColumns=40
inDegrees=yes

Units are S.I. units (second, meters, Newtons, ...)
Angles are in degrees.

endheader
time	pelvis_tilt	pelvis_list	pelvis_rotation	pelvis_tx	pelvis_ty	pelvis_tz	hip_flexion_r	hip_adduction_r	hip_rotation_r	knee_angle_r	knee_angle_r_beta	ankle_angle_r	subtalar_angle_r	mtp_angle_r	hip_flexion_l	hip_adduction_l	hip_rotation_l	knee_angle_l	knee_angle_l_beta	ankle_angle_l	subtalar_angle_l	mtp_angle_l	lumbar_extension	lumbar_bending	lumbar_rotation	arm_flex_r	arm_add_r	arm_rot_r	elbow_flex_r	pro_sup_r	wrist_flex_r	wrist_dev_r	arm_flex_l	arm_add_l	arm_rot_l	elbow_flex_l	pro_sup_l	wrist_flex_l	wrist_dev_l
     54.14800000	     -1.82354354	     -5.19597536	     -0.49890650	      1.04654922	      0.93820666	      0.42975656	     25.69776706	     -7.22750359	     -4.58548542	     43.38771466	     43.38771466	      5.12096247	     -6.44129456	     -1.42584235	      5.80553282	     -6.11554889	    -10.77791332	     16.73546441	     16.73546441	     14.76217809	     -7.13120360	     -2.46214664	     -9.00125935	      4.81807412	      2.42098661	      2.09563081	    -13.76632434	     -1.56141985	     27.12792985	     46.73678547	      0.00000000	      0.00000000	     18.27987373	    -14.93570648	      2.24875651	     49.49002657	     45.59685953	      0.00000000	      0.00000000
     54.16100000	     -2.10055129	     -5.18947764	     -0.75645320	      1.04561849	      0.93747287	      0.43059402	     26.03836494	     -6.99357338	     -4.61943284	     40.45186559	     40.45186559	      4.89482552	     -5.88049542	     -2.27481316	      5.46803136	     -6.02894238	    -10.64421024	     16.10867837	     16.10867837	     14.17584941	     -7.90717536	     -3.93402733	     -9.00662156	      4.82159997	      1.72394804	      1.06989002	    -13.41314162	     -3.91273514	     25.71854223	     46.95604561	      0.00000000	      0.00000000	     17.36131555	    -15.67408455	      0.39984895	     54.28575809	     45.84255514	      0.00000000	      0.00000000
     54.17400000	     -2.32294195	     -5.30435614	     -1.01276395	      1.04466362	      0.93684507	      0.43168701	     26.21403678	     -6.57751496	     -4.82014085	     37.42001825	     37.42001825	      5.04482082	     -5.05686567	     -1.99248808	      5.24708479	     -6.18134862	    -10.74283291	     15.89920635	     15.89920635	     14.32807593	     -8.05964711	     -4.14959557	     -9.00748152	      4.98423469	      1.86738436	     -0.56617689	    -13.55153603	     -4.22747021	     24.83196655	     47.00174157	      0.00000000	      0.00000000	     18.19023792	    -15.82195354	     -0.05754952	     55.53007067	     45.91109473	      0.00000000	      0.00000000
     54.18700000	     -2.57079436	     -5.30600617	     -1.32633138	      1.04378042	      0.93604878	      0.43299202	     26.39603205	     -6.24117839	     -5.12312141	     34.41954123	     34.41954123	      5.10993167	     -4.08062959	     -2.12943364	      4.95178832	     -6.20093875	    -10.88853656	     15.49412375	     15.49412375	     14.06548012	     -8.39414516	     -5.20905981	     -9.09827612	      4.95429479	      1.67846088	     -1.86324650	    -13.38483698	     -6.53262935	     24.11269430	     47.19320797	      0.00000000	      0.00000000	     17.76419059	    -16.19019975	     -1.67728019	     59.58205655	     46.14051010	      0.00000000	      0.00000000
     54.20000000	     -2.82129808	     -5.30103171	     -1.68532853	      1.04299286	      0.93527488	      0.43451232	     26.53318162	     -5.84884350	     -5.52324855	     31.49849788	     31.49849788	      5.33882095	     -2.91067977	     -1.73138877	      4.71537984	     -6.25354673	    -11.13806858	     15.25493266	     15.25493266	     14.18376662	     -8.49810547	     -5.43014238	     -9.12286115	      4.94632421	      2.05801325	     -3.44570082	    -13.42270596	     -7.07463219	     23.37712107	     47.24901651	      0.00000000	      0.00000000	     18.44206645	    -16.21284033	     -2.19716186	     61.38576605	     46.22678712	      0.00000000	      0.00000000
     54.21300000	     -3.09245257	     -5.27764324	     -2.04533237	      1.04238315	      0.93443561	      0.43619508	     26.65932119	     -5.43805174	     -6.04771636	     28.75119727	     28.75119727	      5.62908612	     -1.61639331	     -0.98184184	      4.48106273	     -6.29649344	    -11.38072937	     14.99683152	     14.99683152	     14.22313249	     -8.59561824	     -5.89404372	     -9.13766949	      4.91724022	      1.98208221	     -4.78530345	    -13.41140111	     -8.36178850	     23.21810050	     47.33643006	      0.00000000	      0.00000000	     18.24969561	    -16.58364372	     -3.13902709	     64.46756132	     46.37544073	      0.00000000	      0.00000000
     54.22600000	     -3.28911688	     -5.20952301	     -2.42174426	      1.04194235	      0.93365542	      0.43808419	     26.68680424	     -5.01140825	     -6.62726118	     26.24338237	     26.24338237	      5.92856666	     -0.37482654	     -0.26582787	      4.18397049	     -6.31041029	    -11.69632918	     14.80870032	     14.80870032	     14.33181944	     -8.68597659	     -6.07158806	     -9.20325737	      4.82370031	      2.23906874	     -6.13994690	    -13.43107959	     -8.91262514	     22.83988908	     47.37762786	      0.00000000	      0.00000000	     18.60768799	    -16.70552518	     -3.71906696	     66.52432659	     46.46969305	      0.00000000	      0.00000000
